<?xml version="1.0" encoding="utf-8"?>
<svg viewBox="0 0 489.61898 491.035" version="1.1" id="svg29" width="489.61899" height="491.035" xmlns="http://www.w3.org/2000/svg" preserveAspectRatio="none">
  <defs id="defs26">
    <path id="text-path-1" d="m 77.219,406.062 c 77.897,-187.809 190.069,-151.33 256.629,-99.786 18.407,14.254 76.718,135.623 76.524,160.854"/>
    <path id="path-2" d="m 77.219,406.062 c 77.897,-187.809 190.069,-151.33 256.629,-99.786 18.407,14.254 76.718,135.623 76.524,160.854"/>
    <path id="path-3" d="m 77.219,406.062 c 77.897,-187.809 190.069,-151.33 256.629,-99.786 18.407,14.254 76.718,135.623 76.524,160.854"/>
    <linearGradient gradientUnits="userSpaceOnUse" x1="242.681" y1="70.670998" x2="242.681" y2="419.965" id="gradient-0" gradientTransform="matrix(0.11880809,-1.1178257,0.27505632,0.03710317,76.138972,683.49193)">
      <stop offset="0" style="stop-color: rgb(255, 0, 232); stop-opacity: 0.73;" id="stop1"/>
      <stop offset="0.151" style="stop-color: rgb(97, 0, 200); stop-opacity: 0.84;" id="stop2"/>
      <stop offset="0.267" style="stop-color: rgb(0, 87, 255);" id="stop3"/>
      <stop offset="0.382" style="stop-color: rgb(0, 236, 255);" id="stop4"/>
      <stop offset="0.539" style="stop-color: rgb(22, 197, 13); stop-opacity: 0.82;" id="stop5"/>
      <stop offset="0.725" style="stop-color: rgb(255, 233, 0);" id="stop6"/>
      <stop offset="0.897" style="stop-color: rgb(248, 142, 0);" id="stop7"/>
      <stop offset="1" style="stop-color: rgb(233, 0, 0); stop-opacity: 0.827;" id="stop8"/>
    </linearGradient>
    <linearGradient gradientUnits="userSpaceOnUse" x1="247.952" y1="1.068" x2="247.952" y2="489.103" id="gradient-2" gradientTransform="translate(-12.620192)">
      <stop offset="0" style="stop-color: rgb(166, 0, 140)" id="stop15"/>
      <stop offset="1" style="stop-color: rgb(4, 6, 239);" id="stop16"/>
    </linearGradient>
    <linearGradient gradientUnits="userSpaceOnUse" x1="227.47" y1="250.679" x2="227.47" y2="545.37598" id="gradient-1" gradientTransform="matrix(0.531844,0.846845,-0.939658,0.590138,518.63561,-7.578286)">
      <stop offset="0" style="stop-color: rgb(249, 0, 106);" id="stop17"/>
      <stop offset="0.088" style="stop-color: rgb(86, 0, 154);" id="stop18"/>
      <stop offset="0.16" style="stop-color: rgb(87, 0, 255);" id="stop19"/>
      <stop offset="0.229" style="stop-color: rgb(32, 40, 252);" id="stop20"/>
      <stop offset="0.354" style="stop-color: rgb(86, 151, 244);" id="stop21"/>
      <stop offset="0.43" style="stop-color: rgb(76, 245, 241);" id="stop22"/>
      <stop offset="0.551" style="stop-color: rgb(2, 255, 0);" id="stop23"/>
      <stop offset="0.676" style="stop-color: rgb(211, 224, 69);" id="stop24"/>
      <stop offset="0.827" style="stop-color: rgb(244, 182, 87);" id="stop25"/>
      <stop offset="1" style="stop-color: rgb(225, 72, 72);" id="stop26"/>
    </linearGradient>
  </defs>
  <g id="g29" transform="translate(9.4781923,0.43200004)">
    <rect style="mix-blend-mode:darken;fill:#031056;fill-rule:nonzero;stroke:url(#gradient-2);stroke-width:3px;paint-order:stroke" x="-7.9781923" y="1.068" width="486.61899" height="488.035" rx="79" ry="79" id="rect26"/>
    <path style="stroke:#ffffff;stroke-width:1.06069" d="M 349.92887,207.47326 97.322642,39.308335 141.23747,366.24784" id="path26"/>
    <path d="M 119.56386,429.97631 94.617429,36.739247 357.01616,205.03927 Z M 96.495189,40.380102 139.09489,370.77245 353.7893,205.40516 Z" style="fill:url(#gradient-0);fill-rule:nonzero;stroke:#ffd500;stroke-width:7.42481px;stroke-linecap:round;stroke-linejoin:round;paint-order:stroke" id="path27"/>
    <path d="M 127.57 310.87 L 115.83 331.32 L 90.01 327.31 L 68.65 364.54 L 85.39 384.36 L 73.95 404.31 L 1.63 314.6 L 13.04 294.71 Z M 70.86 324.34 L 28.94 317.34 L 56.28 349.75 Z M 163.16 219.47 L 148.38 233.85 Q 144.13 229.39 139.41 228.86 Q 134.68 228.34 129.88 231.58 Q 123.51 235.88 122.68 242.84 Q 121.86 249.8 128.82 260.12 Q 136.56 271.6 143.61 273.74 Q 150.66 275.87 157.16 271.49 Q 162.01 268.21 163.25 263.36 Q 164.48 258.51 161.21 250.91 L 179.89 242.46 Q 185.06 255.76 181.63 266.65 Q 178.19 277.53 165.74 285.93 Q 151.6 295.47 137.17 292.22 Q 122.73 288.96 112.09 273.17 Q 101.32 257.2 103.76 242.61 Q 106.2 228.03 120.59 218.32 Q 132.37 210.38 142.74 210.76 Q 153.12 211.14 163.16 219.47 Z M 212.59 220.86 Q 214.01 210.71 220.36 201.91 Q 226.7 193.11 236.57 189.4 Q 246.45 185.68 257.77 187.27 Q 275.25 189.73 284.82 202.65 Q 294.39 215.58 291.96 232.91 Q 289.5 250.39 276.6 260.3 Q 263.71 270.21 246.59 267.8 Q 236 266.31 227.06 260.17 Q 218.13 254.04 214.42 244.08 Q 210.72 234.13 212.59 220.86 Z M 233.32 224.89 Q 231.71 236.35 236.29 243.2 Q 240.88 250.06 248.85 251.18 Q 256.83 252.3 263.09 246.97 Q 269.35 241.64 270.98 230.03 Q 272.58 218.72 268.03 211.87 Q 263.48 205.02 255.5 203.89 Q 247.53 202.77 241.23 208.1 Q 234.93 213.43 233.32 224.89 Z M 316.78 294.13 L 299.46 283.01 L 341.49 217.55 L 357.57 227.88 L 351.6 237.19 Q 359.96 233.25 364.6 233.27 Q 369.24 233.29 373.44 235.98 Q 379.35 239.78 382.74 246.57 L 367.68 258.23 Q 365.13 252.58 361.37 250.17 Q 357.73 247.83 353.92 248.21 Q 350.1 248.59 345.29 252.9 Q 340.48 257.21 329.76 273.91 Z M 379.82 382.06 L 370.78 365.22 L 380.85 359.81 Q 372.72 358.77 366.78 354.6 Q 360.85 350.43 357.73 344.63 Q 351.39 332.82 356.38 319.29 Q 361.38 305.75 378.41 296.61 Q 395.84 287.25 409.3 290.58 Q 422.77 293.9 429.49 306.42 Q 435.66 317.91 430.61 331.43 L 464.68 313.13 L 474.42 331.26 Z M 389.58 314.47 Q 378.61 320.36 375.34 326.02 Q 370.6 334.22 374.82 342.1 Q 378.19 348.36 385.86 349.88 Q 393.54 351.41 404.13 345.73 Q 415.94 339.39 418.84 332.34 Q 421.75 325.29 418.18 318.65 Q 414.72 312.2 407.25 310.59 Q 399.78 308.99 389.58 314.47 Z" transform="matrix(0.999336, 0, 0, 1.125805, -4.66082, -66.978394)" style="paint-order: stroke; stroke: rgb(255, 0, 0); stroke-linecap: round; stroke-linejoin: round; stroke-width: 6.20419px; text-wrap-mode: nowrap;"/>
    <ellipse style="stroke:#000000;stroke-width:1.06069" cx="225.81729" cy="233.35777" rx="0.32278565" ry="0.054038659" id="ellipse27"/>
    <ellipse style="stroke:#000000;stroke-width:1.06069" cx="225.81729" cy="233.35777" rx="0.029980088" ry="0.023641912" id="ellipse28"/>
    <path d="M 127.57 310.87 L 115.83 331.32 L 90.01 327.31 L 68.65 364.54 L 85.39 384.36 L 73.95 404.31 L 1.63 314.6 L 13.04 294.71 Z M 70.86 324.34 L 28.94 317.34 L 56.28 349.75 Z M 163.16 219.47 L 148.38 233.85 Q 144.13 229.39 139.41 228.86 Q 134.68 228.34 129.88 231.58 Q 123.51 235.88 122.68 242.84 Q 121.86 249.8 128.82 260.12 Q 136.56 271.6 143.61 273.74 Q 150.66 275.87 157.16 271.49 Q 162.01 268.21 163.25 263.36 Q 164.48 258.51 161.21 250.91 L 179.89 242.46 Q 185.06 255.76 181.63 266.65 Q 178.19 277.53 165.74 285.93 Q 151.6 295.47 137.17 292.22 Q 122.73 288.96 112.09 273.17 Q 101.32 257.2 103.76 242.61 Q 106.2 228.03 120.59 218.32 Q 132.37 210.38 142.74 210.76 Q 153.12 211.14 163.16 219.47 Z M 212.59 220.86 Q 214.01 210.71 220.36 201.91 Q 226.7 193.11 236.57 189.4 Q 246.45 185.68 257.77 187.27 Q 275.25 189.73 284.82 202.65 Q 294.39 215.58 291.96 232.91 Q 289.5 250.39 276.6 260.3 Q 263.71 270.21 246.59 267.8 Q 236 266.31 227.06 260.17 Q 218.13 254.04 214.42 244.08 Q 210.72 234.13 212.59 220.86 Z M 233.32 224.89 Q 231.71 236.35 236.29 243.2 Q 240.88 250.06 248.85 251.18 Q 256.83 252.3 263.09 246.97 Q 269.35 241.64 270.98 230.03 Q 272.58 218.72 268.03 211.87 Q 263.48 205.02 255.5 203.89 Q 247.53 202.77 241.23 208.1 Q 234.93 213.43 233.32 224.89 Z M 316.78 294.13 L 299.46 283.01 L 341.49 217.55 L 357.57 227.88 L 351.6 237.19 Q 359.96 233.25 364.6 233.27 Q 369.24 233.29 373.44 235.98 Q 379.35 239.78 382.74 246.57 L 367.68 258.23 Q 365.13 252.58 361.37 250.17 Q 357.73 247.83 353.92 248.21 Q 350.1 248.59 345.29 252.9 Q 340.48 257.21 329.76 273.91 Z M 379.82 382.06 L 370.78 365.22 L 380.85 359.81 Q 372.72 358.77 366.78 354.6 Q 360.85 350.43 357.73 344.63 Q 351.39 332.82 356.38 319.29 Q 361.38 305.75 378.41 296.61 Q 395.84 287.25 409.3 290.58 Q 422.77 293.9 429.49 306.42 Q 435.66 317.91 430.61 331.43 L 464.68 313.13 L 474.42 331.26 Z M 389.58 314.47 Q 378.61 320.36 375.34 326.02 Q 370.6 334.22 374.82 342.1 Q 378.19 348.36 385.86 349.88 Q 393.54 351.41 404.13 345.73 Q 415.94 339.39 418.84 332.34 Q 421.75 325.29 418.18 318.65 Q 414.72 312.2 407.25 310.59 Q 399.78 308.99 389.58 314.47 Z" transform="matrix(0.999336, 0, 0, 1.125805, -2.662937, -80.566888)" style="fill: rgb(40, 37, 37); paint-order: stroke; stroke: rgb(71, 71, 71); stroke-linecap: round; stroke-linejoin: round; stroke-width: 4px; text-wrap-mode: nowrap; vector-effect: non-scaling-stroke;"/>
    <rect style="stroke:#000000;stroke-width:1.06069" x="225.55846" y="233.32962" width="0.51665688" height="0.05516446" id="rect28"/>
    <path d="M 127.57 310.87 L 115.83 331.32 L 90.01 327.31 L 68.65 364.54 L 85.39 384.36 L 73.95 404.31 L 1.63 314.6 L 13.04 294.71 Z M 70.86 324.34 L 28.94 317.34 L 56.28 349.75 Z M 163.16 219.47 L 148.38 233.85 Q 144.13 229.39 139.41 228.86 Q 134.68 228.34 129.88 231.58 Q 123.51 235.88 122.68 242.84 Q 121.86 249.8 128.82 260.12 Q 136.56 271.6 143.61 273.74 Q 150.66 275.87 157.16 271.49 Q 162.01 268.21 163.25 263.36 Q 164.48 258.51 161.21 250.91 L 179.89 242.46 Q 185.06 255.76 181.63 266.65 Q 178.19 277.53 165.74 285.93 Q 151.6 295.47 137.17 292.22 Q 122.73 288.96 112.09 273.17 Q 101.32 257.2 103.76 242.61 Q 106.2 228.03 120.59 218.32 Q 132.37 210.38 142.74 210.76 Q 153.12 211.14 163.16 219.47 Z M 212.59 220.86 Q 214.01 210.71 220.36 201.91 Q 226.7 193.11 236.57 189.4 Q 246.45 185.68 257.77 187.27 Q 275.25 189.73 284.82 202.65 Q 294.39 215.58 291.96 232.91 Q 289.5 250.39 276.6 260.3 Q 263.71 270.21 246.59 267.8 Q 236 266.31 227.06 260.17 Q 218.13 254.04 214.42 244.08 Q 210.72 234.13 212.59 220.86 Z M 233.32 224.89 Q 231.71 236.35 236.29 243.2 Q 240.88 250.06 248.85 251.18 Q 256.83 252.3 263.09 246.97 Q 269.35 241.64 270.98 230.03 Q 272.58 218.72 268.03 211.87 Q 263.48 205.02 255.5 203.89 Q 247.53 202.77 241.23 208.1 Q 234.93 213.43 233.32 224.89 Z M 316.78 294.13 L 299.46 283.01 L 341.49 217.55 L 357.57 227.88 L 351.6 237.19 Q 359.96 233.25 364.6 233.27 Q 369.24 233.29 373.44 235.98 Q 379.35 239.78 382.74 246.57 L 367.68 258.23 Q 365.13 252.58 361.37 250.17 Q 357.73 247.83 353.92 248.21 Q 350.1 248.59 345.29 252.9 Q 340.48 257.21 329.76 273.91 Z M 379.82 382.06 L 370.78 365.22 L 380.85 359.81 Q 372.72 358.77 366.78 354.6 Q 360.85 350.43 357.73 344.63 Q 351.39 332.82 356.38 319.29 Q 361.38 305.75 378.41 296.61 Q 395.84 287.25 409.3 290.58 Q 422.77 293.9 429.49 306.42 Q 435.66 317.91 430.61 331.43 L 464.68 313.13 L 474.42 331.26 Z M 389.58 314.47 Q 378.61 320.36 375.34 326.02 Q 370.6 334.22 374.82 342.1 Q 378.19 348.36 385.86 349.88 Q 393.54 351.41 404.13 345.73 Q 415.94 339.39 418.84 332.34 Q 421.75 325.29 418.18 318.65 Q 414.72 312.2 407.25 310.59 Q 399.78 308.99 389.58 314.47 Z" style="fill: url(&quot;#gradient-1&quot;); paint-order: fill; stroke: rgb(0, 0, 0); stroke-linecap: round; stroke-linejoin: round; stroke-width: 0px; text-wrap-mode: nowrap; vector-effect: non-scaling-stroke;" transform="matrix(0.999336, 0, 0, 1.125805, -1.747034, -80.556085)"/>
  </g>
</svg>